<svg viewBox="0 0 64 64" xmlns="http://www.w3.org/2000/svg">
  <rect x="30" y="0" height="20" width="4" fill="black"/>
  <rect x="30" y="0" height="20" width="4" transform="rotate(30 32 32)" fill="#cccccc"/>
  <rect x="30" y="0" height="20" width="4" transform="rotate(60 32 32)" fill="#cccccc"/>
  <rect x="30" y="0" height="20" width="4" transform="rotate(90 32 32)" fill="#cccccc"/>
  <rect x="30" y="0" height="20" width="4" transform="rotate(120 32 32)" fill="#cccccc"/>
  <rect x="30" y="0" height="20" width="4" transform="rotate(150 32 32)" fill="#b4b4b4"/>
  <rect x="30" y="0" height="20" width="4" transform="rotate(180 32 32)" fill="#a0a0a0"/>
  <rect x="30" y="0" height="20" width="4" transform="rotate(210 32 32)" fill="#7e7e7e"/>
  <rect x="30" y="0" height="20" width="4" transform="rotate(240 32 32)" fill="#686868"/>
  <rect x="30" y="0" height="20" width="4" transform="rotate(270 32 32)" fill="#4c4c4c"/>
  <rect x="30" y="0" height="20" width="4" transform="rotate(300 32 32)" fill="#343434"/>
  <rect x="30" y="0" height="20" width="4" transform="rotate(330 32 32)" fill="#1b1b1b"/>
</svg>
